<?xml version="1.0" standalone="no"?>
<!DOCTYPE svg PUBLIC "-//W3C//DTD SVG 20010904//EN"
 "http://www.w3.org/TR/2001/REC-SVG-20010904/DTD/svg10.dtd">
<svg version="1.0" xmlns="http://www.w3.org/2000/svg"
 width="500.000000pt" height="500.000000pt" viewBox="0 0 500.000000 500.000000"
 preserveAspectRatio="xMidYMid meet">
<metadata>
Created by potrace 1.11, written by Peter Selinger 2001-2013
</metadata>
<g transform="translate(0.000000,500.000000) scale(0.100000,-0.100000)"
fill="#000000" stroke="none">
<path d="M550 4990 c-243 -43 -441 -219 -521 -464 l-24 -71 0 -1955 0 -1955
24 -71 c72 -219 226 -373 445 -445 l71 -24 1955 0 1955 0 71 24 c219 72 373
226 445 445 l24 71 0 1955 0 1955 -24 71 c-71 217 -217 365 -441 446 l-65 23
-1935 1 c-1064 1 -1955 -2 -1980 -6z m2233 -865 c693 -125 1215 -650 1344
-1350 24 -126 23 -426 0 -552 -131 -703 -649 -1221 -1352 -1350 -124 -23 -426
-23 -550 0 -349 64 -648 219 -890 462 -498 497 -625 1244 -320 1880 245 510
726 852 1302 925 97 12 362 4 466 -15z"/>
<path d="M2318 3634 c-415 -64 -773 -369 -908 -771 -200 -599 127 -1252 727
-1453 672 -224 1392 216 1498 917 116 769 -548 1427 -1317 1307z"/>
</g>
</svg>
